PathFileType	4	(X/Y/Z)	5_2_102_p1_0-715_filt_butterworth.trc
DataRate	CameraRate	NumFrames	NumMarkers	Units	OrigDataRate	OrigDataStartFrame	OrigNumFrames
59.0	59.0	5	27	m	59.0	0	715
Frame#	Time	RHip			RKnee			RAnkle			RBigToe			RSmallToe			RHeel			LHip			LKnee			LAnkle			LBigToe			LSmallToe			LHeel			Neck			Head			Nose			RShoulder			RElbow			RWrist			RThumb			RIndex			RPinky			LShoulder			LElbow			LWrist			LThumb			LIndex			LPinky			
		X1	Y1	Z1	X2	Y2	Z2	X3	Y3	Z3	X4	Y4	Z4	X5	Y5	Z5	X6	Y6	Z6	X7	Y7	Z7	X8	Y8	Z8	X9	Y9	Z9	X10	Y10	Z10	X11	Y11	Z11	X12	Y12	Z12	X13	Y13	Z13	X14	Y14	Z14	X15	Y15	Z15	X16	Y16	Z16	X17	Y17	Z17	X18	Y18	Z18	X19	Y19	Z19	X20	Y20	Z20	X21	Y21	Z21	X22	Y22	Z22	X23	Y23	Z23	X24	Y24	Z24	X25	Y25	Z25	X26	Y26	Z26	X27	Y27	Z27	
0	0.0	0.36487629462127413	0.5313020057172466	0.8111347017531785	0.36700472397532624	0.6033837428825113	1.2193319940219214	0.37823295909449656	0.6468932543679795	1.6340929200671104	0.4157099877816036	0.64275244302388	1.6931086368280288	0.4655602051912223	0.6299121396611782	1.6704598792105136	0.34837755299450146	0.689217857649795	1.6869574254965172	0.13925263927215947	0.5055474032975972	0.8184355905216163	0.16558964797294057	0.5817005600204804	1.2412739009091516	0.1721101316506976	0.6776091015665608	1.686499739503022	0.2946180037213759	0.6344180543696998	1.7321338227149223	0.24591746029670516	0.6111731509427867	1.743631818235342	0.1289448332504748	0.7412753472472697	1.7734415031223438	0.23973591979272701	0.4306864037515742	0.3062271872467496	0.2508778400968454	0.32186180385989577	0.06582383387003454	0.26270456366718525	0.3103608141895888	0.2075409110164217	0.40820066705687563	0.46475656964154094	0.3920241211105948	0.45621868112839853	0.5328947091332916	0.6677234916408726	0.46990955341993207	0.5394361848582723	0.9220231011121052	0.43630635291346687	0.4786898438350334	1.0471117018095748	0.44224590903140615	0.48577115943742427	1.063856889655775	0.48424788529554275	0.5488995333398294	1.0636101316263245	0.09065283696903106	0.44069217954907636	0.41517251509962744	0.037560483195677584	0.4858818164992975	0.6811119752884286	0.042228650772521484	0.5179764418416144	0.9619974952887875	0.12024716720314892	0.47138060461014697	1.0517891841473685	0.09938350987410664	0.43690009438501953	1.0629039254728523	0.03817715392523627	0.4805665961155464	1.0623466602909422
1	0.0169491525423728	0.36495414101395346	0.5313767406864944	0.8115163434489523	0.3663505727560776	0.6026421839530365	1.218877323279472	0.37983561552183986	0.6558874787026556	1.637652786948349	0.4172804762334372	0.6438940999857206	1.693062938345626	0.46544043254940615	0.6307888786357615	1.6704983310631936	0.3456195430072803	0.7058918679770985	1.6942099192681823	0.1396929758453211	0.5055837139472759	0.8227485072294449	0.1651727188124601	0.5829913540080206	1.2443238321968644	0.1731867165102964	0.6783615555548372	1.6869313023100005	0.29642267430769803	0.620609139346727	1.7260085616007377	0.24323729589275803	0.6065296951516742	1.7406597988925532	0.13459726374480527	0.7417179482364574	1.771229854705531	0.23969288562600854	0.4305279677551095	0.30625935449641467	0.2508203544259075	0.3219151838539164	0.0658787796767665	0.26258258745283036	0.31124192359853203	0.20695949110451006	0.4107155590471426	0.4657279819917585	0.39383518802289663	0.456216191113341	0.5329413897223065	0.6677276819387357	0.4698017191718216	0.5396866528935657	0.9230658884977728	0.43485957665122227	0.47224543785392603	1.0438985336823672	0.4420111354855829	0.48577478249652545	1.064046716498474	0.4822474624444339	0.5490716997040274	1.0636032641780861	0.09067133330390743	0.4399394637465414	0.4141835837931071	0.037479564808848446	0.4845284468230585	0.6811882443566674	0.04182014796491985	0.5130537081314033	0.9612541928607097	0.1193574013920139	0.46335877455061	1.050028599758361	0.09939130099355561	0.43661004158442934	1.0627985849706434	0.03830279904032165	0.48047810902363375	1.0622801233126702
2	0.0338983050847457	0.36511848406407865	0.5318405056892049	0.8125655699738876	0.36618177749847847	0.6022703014291019	1.2192017074850696	0.38033704204208446	0.6611577914219864	1.6400048506992322	0.41970542583014836	0.6450157343093988	1.6929831311512495	0.4654062854337321	0.6314217781395397	1.6704477436990368	0.34402340065217574	0.711193533922558	1.6967190432437413	0.13999434875692837	0.5058389626769515	0.8270242497339519	0.1650469880674729	0.584412749548683	1.2464028199185924	0.17497071723964203	0.6774777079548764	1.686924720607761	0.29797218480193766	0.6118777026559756	1.7220114452880835	0.2426755048585998	0.6032070840376114	1.7384882914390565	0.13796677063285434	0.7421839107695656	1.7702353795436365	0.23967383426080852	0.4304290444343952	0.3062822509847466	0.25078584693003	0.3219428444344922	0.06591015278004118	0.26245519444206244	0.3114578281820409	0.20576177449033828	0.4122216371067783	0.46630444294715506	0.3949194683367584	0.456219625245046	0.5329662849512599	0.6677432600762547	0.46976826249714393	0.539803808052765	0.9234975163699802	0.43452747412120307	0.47038088299819175	1.0427176886801661	0.4418721674203873	0.4857769613596555	1.0641430331349093	0.4805876596238577	0.5494511437978477	1.0636276226237638	0.09072816139338902	0.4397001363959318	0.4140562329097473	0.03731536328235849	0.4813807882541728	0.68121294073668	0.04145250953890737	0.5083238913732931	0.9605319210759511	0.11887294339416826	0.458591281232307	1.0489823593393646	0.09950582829590654	0.4362595736985563	1.0626821292248132	0.0382689304587053	0.48052434290860757	1.0626297842115224
3	0.0508474576271186	0.3653575919448411	0.5325799091772091	0.8141616199145637	0.36654345557525114	0.6023164916488162	1.2202870885437769	0.3793260952814458	0.6624296581597745	1.6405951145563247	0.4220139627538596	0.6456623104844712	1.6928494239575038	0.46540771430584627	0.6317440343356306	1.6703640298456575	0.3439049686546029	0.7043651683740026	1.6941600797316263	0.14019615293037543	0.5061650266933577	0.8305657051964174	0.16533316639352055	0.5855334017970846	1.2472432431717893	0.17721078695452167	0.6740215894772803	1.6859936096520642	0.29924190551053026	0.6077767893696205	1.7199776684237496	0.2441301872298589	0.6005995087948702	1.7366786167537602	0.1388276544132585	0.7423052673461051	1.7705250189965454	0.23967932539071107	0.43038067486722426	0.30628957484960084	0.2507783247599423	0.32193900865097436	0.06591049542285272	0.2623347877036818	0.31107153155528533	0.20411415063076271	0.4126478116505356	0.4664477333340048	0.39522694433759414	0.4562263422775802	0.5329654444606795	0.6677645068832361	0.4698211363047632	0.53972878009252	0.9231105558733862	0.4352037036123768	0.4727818269209041	1.0431200059776384	0.44183797503282474	0.4857643260640542	1.0641464757728518	0.47973825663242375	0.5497861245786555	1.0636492197671752	0.09079205722445839	0.439854256639535	0.41453382181050547	0.03705465746185328	0.47706096342302795	0.6811194829458789	0.04121505045915104	0.5050542217403602	0.9600289255358835	0.11870552879092283	0.45723322611116024	1.0487113417742688	0.09943253567329377	0.4362118985846243	1.0626820470608738	0.03810061054769428	0.48073120996295654	1.063634801076118
4	0.0677966101694915	0.365610498640109	0.5330973071618469	0.8157648358378613	0.3671536699554972	0.6025133400458702	1.2214619393639863	0.37744395120632984	0.661814531176502	1.6392531576634592	0.42320098141038043	0.6460214997614396	1.6927915756662193	0.46538654278453206	0.6318528406626117	1.6703507721677713	0.3445757273308677	0.6934287634041788	1.69007903079883	0.14042979397919902	0.5062750476095734	0.8323724218515361	0.1659380238045028	0.585778595227245	1.247205900055953	0.17903646432617729	0.669085932612047	1.68405441578352	0.3003704177400348	0.6060159625715602	1.7190157918147848	0.24598989526725168	0.5981141835291349	1.7348238111671441	0.13842864663159485	0.7408900398375426	1.7710102892572523	0.23969134923722613	0.43035499187654336	0.3062832621184746	0.25078698602639926	0.3219169624721279	0.06589062932690884	0.2622521251441437	0.3106423234249246	0.20296351420938388	0.41255648156071933	0.46637662492963006	0.3951662785769769	0.45623130718805244	0.5329478160426421	0.667776738980871	0.46988838898979596	0.5395714300139045	0.922417782074975	0.4359779286262577	0.4758438265136776	1.043718474107513	0.441850969332502	0.48571222868970004	1.0641243354990222	0.47962505514272447	0.5493161904302302	1.0636394050684148	0.09081595394944311	0.4400375660698753	0.41495615624830506	0.036768262310883496	0.47378287512720735	0.6808768397396383	0.041130669859013855	0.5038466450213676	0.9598480444514295	0.11833964388542353	0.4572861877859058	1.0488195977583967	0.0983580045184715	0.43737231344847827	1.0631049570439122	0.03795011797302127	0.4811171009565104	1.0650115448202364
